<?xml version="1.0" encoding="utf-8"?>
<!-- Generator: Adobe Illustrator 19.1.0, SVG Export Plug-In . SVG Version: 6.00 Build 0)  -->
<svg version="1.1" id="Layer_1" xmlns="http://www.w3.org/2000/svg" xmlns:xlink="http://www.w3.org/1999/xlink" x="0px" y="0px"
	 viewBox="-219 221 60 60" style="enable-background:new -219 221 60 60;" xml:space="preserve">
<style type="text/css">
	.st0{fill:#04A64B;}
</style>
<g id="Layer_3">
	<path class="st0" d="M-179.2,263.8v3.3c-0.9,0.6-1.9,1.1-3.2,1.5v-4l-0.7,4.2c-1.7,0.5-3.7,0.7-5.9,0.7c-2.1,0-4.2-0.3-5.9-0.7
		l-0.7-4.2v4c-1.4-0.4-2.6-1-3.4-1.6v-3.2c0-3.4,1.1-6.4,7.5-7.1c0.8,0.4,1.6,0.6,2.6,0.6c0.9,0,1.8-0.2,2.6-0.6
		C-180,257.4-179.2,260.5-179.2,263.8 M-189,245.5c-2.9,0-5.3,2.4-5.3,5.3c0,2.9,2.4,5.3,5.3,5.3s5.3-2.4,5.3-5.3
		C-183.7,247.9-186.1,245.5-189,245.5 M-204.6,244.4c0-2.9,2.4-5.3,5.3-5.3c2.9,0,5.3,2.4,5.3,5.3c0,2.9-2.4,5.3-5.3,5.3
		C-202.3,249.7-204.6,247.3-204.6,244.4 M-193.6,255.6c-1.3-1.2-2.1-2.9-2.1-4.8c0-0.1,0-0.2,0-0.3c-0.4-0.1-0.7-0.1-1.1-0.1
		c-0.8,0.4-1.6,0.6-2.6,0.6c-0.9,0-1.8-0.2-2.6-0.6c-6.3,0.6-7.5,3.7-7.5,7.1v3.2c0.9,0.6,2.1,1.2,3.4,1.6v-4l0.7,4.2
		c1.4,0.4,3.1,0.6,4.8,0.7C-200.2,259-198,256.5-193.6,255.6 M-192.7,236.9c0-2,1.6-3.7,3.7-3.7c2,0,3.7,1.6,3.7,3.7
		c0,2-1.6,3.7-3.7,3.7S-192.7,238.9-192.7,236.9 M-184.4,241.7c-0.7-0.3-1.6-0.6-2.9-0.7c-0.5,0.3-1.1,0.4-1.8,0.4
		c-0.6,0-1.3-0.2-1.8-0.4c-1.2,0.1-2.1,0.4-2.8,0.7c0.4,0.8,0.6,1.7,0.6,2.7c0,0.6-0.1,1.2-0.3,1.8c1.1-1.1,2.6-1.7,4.3-1.7
		c1.7,0,3.2,0.6,4.3,1.7c-0.1-0.6-0.2-1.2-0.2-1.8C-185,243.4-184.8,242.5-184.4,241.7 M-168.6,257.4v3.2c-0.9,0.6-2.1,1.2-3.4,1.6
		v-4l-0.7,4.2c-1.5,0.4-3.2,0.6-5.1,0.7c-0.1-3.1-1.2-6.4-6.6-7.5c1.3-1.2,2-2.9,2-4.8c0-0.1,0-0.2,0-0.3c0.4-0.1,0.7-0.1,1.1-0.1
		c0.8,0.4,1.6,0.6,2.6,0.6c0.9,0,1.8-0.2,2.6-0.6C-169.8,251-168.6,254.1-168.6,257.4 M-178.6,249.7c2.9,0,5.3-2.4,5.3-5.3
		c0-2.9-2.4-5.3-5.3-5.3c-2.9,0-5.3,2.4-5.3,5.3C-183.9,247.3-181.5,249.7-178.6,249.7"/>
</g>
</svg>
